<svg width="131" height="140" viewBox="0 0 131 140" fill="none" xmlns="http://www.w3.org/2000/svg">
<circle cx="62.8309" cy="26.5663" r="26.5663" fill="#FFC8BE"/>
<path d="M89.3972 26.5663C62.8309 26.5663 77.5031 9.69879 62.8309 9.69879C48.1588 9.69879 62.8309 26.5663 36.2646 26.5663C36.2646 11.8941 48.1588 0 62.8309 0C77.5031 0 89.3972 11.8941 89.3972 26.5663Z" fill="#040706"/>
<circle cx="86.8677" cy="32.0482" r="7.59036" fill="#FFC8BE"/>
<circle cx="38.7954" cy="32.0482" r="7.59036" fill="#FFC8BE"/>
<path d="M24.7408 44.08L34.6051 38.9984C34.8676 38.8632 35.1169 38.704 35.35 38.5227C37.3006 37.0056 40.0865 37.2273 41.7726 39.0338L43.3537 40.7279C44.2178 41.6538 44.6984 42.873 44.6984 44.1395V66.2048L38.7948 78.4337L22.7707 72.1084L25.7225 61.988L22.2278 49.9152C21.5633 47.6195 22.6162 45.1745 24.7408 44.08Z" fill="url(#paint0_linear_1121_1486)"/>
<path d="M101.957 44.08L92.0931 38.9984C91.8307 38.8632 91.5813 38.704 91.3483 38.5227C89.3977 37.0056 86.6118 37.2273 84.9257 39.0338L83.3445 40.7279C82.4804 41.6538 81.9998 42.873 81.9998 44.1395V66.2048L87.9034 78.4337L103.928 72.1084L100.976 61.988L104.47 49.9152C105.135 47.6195 104.082 45.1745 101.957 44.08Z" fill="url(#paint1_linear_1121_1486)"/>
<path d="M22.7711 72.1084L55.241 54.3976H70.5L104 72.1084L120.267 91.6695C126.086 98.666 126.098 108.814 120.296 115.824C114.392 122.958 104.191 124.769 96.1926 120.103L94.8795 119.337V140H37.5301V117.651L30.199 121.316C22.269 125.281 12.634 122.915 7.44297 115.727C2.97716 109.544 2.86946 101.224 7.17371 94.9268L22.7711 72.1084Z" fill="url(#paint2_linear_1121_1486)"/>
<path d="M76.7471 37.1084C79.8378 37.1085 82.6281 38.1926 84.6211 39.9336C90.7227 41.2281 95.3008 46.6454 95.3008 53.1328C95.3006 60.5852 89.259 66.626 81.8066 66.626C76.4715 66.6258 71.8598 63.5298 69.6699 59.0361H59.3652C57.1753 63.5298 52.5637 66.626 47.2285 66.626C39.7762 66.6259 33.7346 60.5851 33.7344 53.1328C33.7344 46.6459 38.3122 41.2287 44.4131 39.9336C46.4062 38.1921 49.1978 37.1084 52.2891 37.1084C56.937 37.1084 60.9066 39.557 62.502 43.0117H66.5342C68.1296 39.557 72.0992 37.1084 76.7471 37.1084Z" fill="#030303"/>
<circle cx="81.8074" cy="53.1326" r="9.27711" fill="#7B7B7B"/>
<circle cx="47.2283" cy="53.1326" r="9.27711" fill="#7B7B7B"/>
<defs>
<linearGradient id="paint0_linear_1121_1486" x1="32.8912" y1="35.8434" x2="32.8912" y2="78.4337" gradientUnits="userSpaceOnUse">
<stop stop-color="#FFBAAD"/>
<stop offset="1" stop-color="#FFDFD9"/>
</linearGradient>
<linearGradient id="paint1_linear_1121_1486" x1="93.807" y1="35.8434" x2="93.807" y2="78.4337" gradientUnits="userSpaceOnUse">
<stop stop-color="#FFBAAD"/>
<stop offset="1" stop-color="#FFDFD9"/>
</linearGradient>
<linearGradient id="paint2_linear_1121_1486" x1="66.6265" y1="54.3976" x2="66.6265" y2="140" gradientUnits="userSpaceOnUse">
<stop stop-color="#0EBC81"/>
<stop offset="1" stop-color="#10A472"/>
</linearGradient>
</defs>
</svg>
