<svg width="158" height="158" viewBox="0 0 158 158" fill="none" xmlns="http://www.w3.org/2000/svg">
<g clip-path="url(#clip0_885_1589)">
<rect width="158" height="158" rx="15" fill="#E7F8F2"/>
<circle cx="76.8309" cy="53.5663" r="26.5663" fill="#FFC8BE"/>
<path d="M103.397 53.5663C76.8309 53.5663 91.5031 36.6988 76.8309 36.6988C62.1588 36.6988 76.8309 53.5663 50.2646 53.5663C50.2646 38.8941 62.1588 27 76.8309 27C91.5031 27 103.397 38.8941 103.397 53.5663Z" fill="#040706"/>
<circle cx="100.868" cy="59.0482" r="7.59036" fill="#FFC8BE"/>
<circle cx="52.7954" cy="59.0482" r="7.59036" fill="#FFC8BE"/>
<path d="M38.7408 71.08L48.6051 65.9984C48.8676 65.8632 49.1169 65.704 49.35 65.5227C51.3006 64.0056 54.0865 64.2273 55.7726 66.0338L57.3537 67.7279C58.2178 68.6538 58.6984 69.873 58.6984 71.1395V93.2048L52.7948 105.434L36.7707 99.1084L39.7225 88.988L36.2278 76.9152C35.5633 74.6195 36.6162 72.1745 38.7408 71.08Z" fill="url(#paint0_linear_885_1589)"/>
<path d="M115.957 71.08L106.093 65.9984C105.831 65.8632 105.581 65.704 105.348 65.5227C103.398 64.0056 100.612 64.2273 98.9257 66.0338L97.3445 67.7279C96.4804 68.6538 95.9998 69.873 95.9998 71.1395V93.2048L101.903 105.434L117.928 99.1084L114.976 88.988L118.47 76.9152C119.135 74.6195 118.082 72.1745 115.957 71.08Z" fill="url(#paint1_linear_885_1589)"/>
<path d="M36.7711 99.1084L69.241 81.3976H84.5L118 99.1084L134.267 118.669C140.086 125.666 140.098 135.814 134.296 142.824C128.392 149.958 118.191 151.769 110.193 147.103L108.88 146.337V167H51.5301V144.651L44.199 148.316C36.269 152.281 26.634 149.915 21.443 142.727C16.9772 136.544 16.8695 128.224 21.1737 121.927L36.7711 99.1084Z" fill="url(#paint2_linear_885_1589)"/>
<path d="M90.7471 64.1084C93.8378 64.1085 96.6281 65.1926 98.6211 66.9336C104.723 68.2281 109.301 73.6454 109.301 80.1328C109.301 87.5852 103.259 93.626 95.8066 93.626C90.4715 93.6258 85.8598 90.5298 83.6699 86.0361H73.3652C71.1753 90.5298 66.5637 93.626 61.2285 93.626C53.7762 93.6259 47.7346 87.5851 47.7344 80.1328C47.7344 73.6459 52.3122 68.2287 58.4131 66.9336C60.4062 65.1921 63.1978 64.1084 66.2891 64.1084C70.937 64.1084 74.9066 66.557 76.502 70.0117H80.5342C82.1296 66.557 86.0992 64.1084 90.7471 64.1084Z" fill="#030303"/>
<circle cx="95.8074" cy="80.1326" r="9.27711" fill="#7B7B7B"/>
<circle cx="61.2283" cy="80.1326" r="9.27711" fill="#7B7B7B"/>
</g>
<rect x="1" y="1" width="156" height="156" rx="14" stroke="#0EBC81" stroke-width="2"/>
<defs>
<linearGradient id="paint0_linear_885_1589" x1="46.8912" y1="62.8434" x2="46.8912" y2="105.434" gradientUnits="userSpaceOnUse">
<stop stop-color="#FFBAAD"/>
<stop offset="1" stop-color="#FFDFD9"/>
</linearGradient>
<linearGradient id="paint1_linear_885_1589" x1="107.807" y1="62.8434" x2="107.807" y2="105.434" gradientUnits="userSpaceOnUse">
<stop stop-color="#FFBAAD"/>
<stop offset="1" stop-color="#FFDFD9"/>
</linearGradient>
<linearGradient id="paint2_linear_885_1589" x1="80.6265" y1="81.3976" x2="80.6265" y2="167" gradientUnits="userSpaceOnUse">
<stop stop-color="#0EBC81"/>
<stop offset="1" stop-color="#10A472"/>
</linearGradient>
<clipPath id="clip0_885_1589">
<rect width="158" height="158" rx="15" fill="white"/>
</clipPath>
</defs>
</svg>
