<svg width="26" height="28" viewBox="0 0 26 28" fill="none" xmlns="http://www.w3.org/2000/svg">
<path d="M8.72507 24.4106H17.2712C17.1005 25.4142 16.5776 26.3254 15.7955 26.9825C15.0133 27.6395 14.0223 28 12.9982 28C11.9741 28 10.9831 27.6395 10.2009 26.9825C9.41867 26.3254 8.89583 25.4142 8.72507 24.4106ZM12.9982 0C15.8716 0 18.6274 1.13463 20.6592 3.15427C22.6911 5.17392 23.8325 7.91315 23.8325 10.7694V16.513L25.881 21.0505C25.9741 21.258 26.0136 21.4854 25.9959 21.712C25.9781 21.9385 25.9038 22.1571 25.7795 22.3478C25.6552 22.5385 25.485 22.6954 25.2842 22.8041C25.0835 22.9128 24.8586 22.9699 24.63 22.9703H1.37213C1.14321 22.9703 0.917938 22.9133 0.716822 22.8046C0.515706 22.6959 0.345139 22.539 0.220652 22.348C0.0961659 22.1571 0.0217148 21.9382 0.0040789 21.7113C-0.013557 21.4844 0.0261826 21.2568 0.119679 21.0491L2.16377 16.5116V10.7507L2.17099 10.3917C2.26981 7.60296 3.45378 4.9612 5.47345 3.02302C7.49313 1.08484 10.1908 0.000131026 12.9982 0Z" fill="#D1D6DB"/>
</svg>
