<svg width="22" height="20" viewBox="0 0 22 20" fill="none" xmlns="http://www.w3.org/2000/svg">
<path fill-rule="evenodd" clip-rule="evenodd" d="M8.5558 20H13.4442C16.8773 20 18.5944 20 19.8275 19.1833C20.3597 18.8313 20.818 18.3767 21.1761 17.8456C22 16.6233 22 14.92 22 11.5156C22 8.11114 22 6.40781 21.1761 5.18559C20.818 4.65448 20.3597 4.19988 19.8275 3.84782C19.0355 3.32227 18.0433 3.13449 16.5242 3.06782C15.7993 3.06782 15.1756 2.52338 15.0337 1.81782C14.9253 1.30101 14.6435 0.837868 14.236 0.506663C13.8286 0.175458 13.3204 -0.00349423 12.7974 5.17008e-05H9.2026C8.1158 5.17008e-05 7.1797 0.761161 6.9663 1.81782C6.8244 2.52338 6.2007 3.06782 5.4758 3.06782C3.9578 3.13449 2.9656 3.32338 2.1725 3.84782C1.64069 4.2 1.1828 4.65458 0.825 5.18559C0 6.40781 0 8.11003 0 11.5156C0 14.9211 6.55651e-08 16.6222 0.8239 17.8456C1.1803 18.3745 1.6379 18.8289 2.1725 19.1833C3.4056 20 5.1227 20 8.5558 20ZM11 6.97003C8.4689 6.97003 6.4163 9.00447 6.4163 11.5145C6.4163 14.0245 8.47 16.0622 11 16.0622C13.53 16.0622 15.5837 14.0267 15.5837 11.5167C15.5837 9.0067 13.53 6.97003 11 6.97003ZM11 8.78781C9.482 8.78781 8.25 10.0089 8.25 11.5156C8.25 13.0211 9.482 14.2422 11 14.2422C12.518 14.2422 13.75 13.0211 13.75 11.5156C13.75 10.01 12.518 8.78781 11 8.78781ZM16.1942 7.87892C16.1942 7.3767 16.6045 6.97003 17.1116 6.97003H18.3326C18.8386 6.97003 19.25 7.3767 19.25 7.87892C19.2477 8.12214 19.1499 8.35448 18.9781 8.5249C18.8062 8.69532 18.5745 8.78988 18.3337 8.78781H17.1116C16.9923 8.78898 16.8739 8.7664 16.7632 8.72136C16.6525 8.67632 16.5517 8.60969 16.4665 8.5253C16.3813 8.4409 16.3134 8.34037 16.2667 8.22947C16.22 8.11856 16.1954 7.99945 16.1942 7.87892Z" fill="#0EBC81"/>
</svg>
