<svg width="20" height="20" viewBox="0 0 20 20" fill="none" xmlns="http://www.w3.org/2000/svg">
<path d="M10 1.875C7.84512 1.875 5.77849 2.73102 4.25476 4.25476C2.73102 5.77849 1.875 7.84512 1.875 10C1.875 11.2983 2.18 12.5275 2.72333 13.6183C2.81 13.7933 2.81833 14.0542 2.71917 14.46C2.66665 14.665 2.60549 14.8677 2.53583 15.0675L2.51083 15.1392C2.44917 15.3225 2.3825 15.5225 2.3325 15.7083C2.01417 16.8975 3.1025 17.9858 4.29083 17.6675C4.4775 17.6175 4.67667 17.5508 4.86083 17.4892L4.9325 17.4642C5.13232 17.3945 5.335 17.3333 5.54 17.2808C5.94583 17.1808 6.20667 17.1892 6.38167 17.2767C7.50552 17.8366 8.74437 18.1271 10 18.125C14.4875 18.125 18.125 14.4875 18.125 10C18.125 5.5125 14.4875 1.875 10 1.875Z" fill="#237BFF"/>
</svg>
