<svg width="16" height="16" viewBox="0 0 16 16" fill="none" xmlns="http://www.w3.org/2000/svg">
<path fill-rule="evenodd" clip-rule="evenodd" d="M8.39545 15.5054L8.38811 15.5067L8.34078 15.53L8.32745 15.5327L8.31811 15.53L8.27078 15.5067C8.26367 15.5045 8.25834 15.5056 8.25478 15.51L8.25211 15.5167L8.24078 15.802L8.24411 15.8154L8.25078 15.824L8.32011 15.8734L8.33011 15.876L8.33811 15.8734L8.40745 15.824L8.41545 15.8134L8.41811 15.802L8.40678 15.5174C8.405 15.5103 8.40123 15.5063 8.39545 15.5054ZM8.57211 15.43L8.56345 15.4314L8.44011 15.4934L8.43345 15.5L8.43145 15.5074L8.44345 15.794L8.44678 15.802L8.45211 15.8067L8.58611 15.8687C8.59456 15.8709 8.601 15.8692 8.60545 15.8634L8.60811 15.854L8.58545 15.4447C8.58323 15.4367 8.57878 15.4318 8.57211 15.43ZM8.09545 15.4314C8.09251 15.4296 8.089 15.429 8.08565 15.4298C8.08229 15.4305 8.07936 15.4325 8.07745 15.4354L8.07345 15.4447L8.05078 15.854C8.05123 15.862 8.055 15.8674 8.06211 15.87L8.07211 15.8687L8.20611 15.8067L8.21278 15.8014L8.21545 15.794L8.22678 15.5074L8.22478 15.4994L8.21811 15.4927L8.09545 15.4314Z" fill="#0FBC80"/>
<path fill-rule="evenodd" clip-rule="evenodd" d="M2 3C2 2.73478 2.10536 2.48043 2.29289 2.29289C2.48043 2.10536 2.73478 2 3 2H13C13.2652 2 13.5196 2.10536 13.7071 2.29289C13.8946 2.48043 14 2.73478 14 3V4.39067C13.9999 4.74426 13.8594 5.08334 13.6093 5.33333L10 8.94267V13.892C10 14.017 9.96808 14.14 9.90721 14.2492C9.84634 14.3584 9.75857 14.4502 9.65223 14.5159C9.54589 14.5816 9.42451 14.6191 9.29962 14.6247C9.17473 14.6303 9.05048 14.6039 8.93867 14.548L6.46067 13.3093C6.32225 13.2401 6.20583 13.1337 6.12447 13.0021C6.0431 12.8705 6.00001 12.7188 6 12.564V8.94267L2.39067 5.33333C2.1406 5.08334 2.00008 4.74426 2 4.39067V3Z" fill="#0FBC80"/>
</svg>
