<svg width="17" height="18" viewBox="0 0 17 18" fill="none" xmlns="http://www.w3.org/2000/svg">
<path fill-rule="evenodd" clip-rule="evenodd" d="M6.5625 0C7.749 0 8.56975 0.7455 9.09562 1.79638C9.55238 2.71075 9.59525 3.80888 9.618 4.8125H13.8477C14.2109 4.81245 14.5702 4.88776 14.9028 5.03368C15.2354 5.1796 15.534 5.39294 15.7799 5.66023C16.0258 5.92751 16.2136 6.24291 16.3314 6.58648C16.4491 6.93006 16.4943 7.29432 16.464 7.65625L16.1481 11.4459C16.0206 12.977 15.3223 14.4044 14.1916 15.4447C13.061 16.4851 11.5806 17.0625 10.0441 17.0625H8.72112C7.22371 17.0654 5.7777 16.5165 4.65937 15.5208C4.54033 15.4152 4.39953 15.3372 4.24696 15.2921C4.09439 15.247 3.93378 15.2361 3.7765 15.26C3.54013 15.2952 3.30147 15.3128 3.0625 15.3125C2.093 15.3125 1.288 14.77 0.7665 13.9055C0.259 13.0655 0 11.9061 0 10.5C0 9.09387 0.259875 7.93538 0.7665 7.09538C1.288 6.23 2.093 5.6875 3.0625 5.6875C3.30837 5.6875 3.56912 5.73125 3.82987 5.80475C4.23062 4.75475 4.51587 3.67238 4.38112 2.53663C4.23063 1.27225 5.264 0 6.5625 0Z" fill="#D1D6DB"/>
</svg>
