<svg width="56" height="48" viewBox="0 0 56 48" fill="none" xmlns="http://www.w3.org/2000/svg">
<path fill-rule="evenodd" clip-rule="evenodd" d="M26.375 3H20.75C20.1533 3 19.581 3.23178 19.159 3.64437C18.7371 4.05694 18.5 4.61652 18.5 5.2V22.8C18.5 23.3835 18.7371 23.9431 19.159 24.3556C19.581 24.7682 20.1533 25 20.75 25H26.375V3ZM23 12.9C22.7016 12.9 22.4155 13.0159 22.2045 13.2222C21.9935 13.4285 21.875 13.7083 21.875 14C21.875 14.2917 21.9935 14.5715 22.2045 14.7778C22.4155 14.9841 22.7016 15.1 23 15.1H24.125C24.4234 15.1 24.7095 14.9841 24.9205 14.7778C25.1315 14.5715 25.25 14.2917 25.25 14C25.25 13.7083 25.1315 13.4285 24.9205 13.2222C24.7095 13.0159 24.4234 12.9 24.125 12.9H23ZM28.625 25H34.25C34.8467 25 35.419 24.7682 35.841 24.3556C36.2629 23.9431 36.5 23.3835 36.5 22.8V5.2C36.5 4.61652 36.2629 4.05694 35.841 3.64437C35.419 3.23178 34.8467 3 34.25 3H28.625V25ZM29.75 14C29.75 13.7083 29.8685 13.4285 30.0795 13.2222C30.2905 13.0159 30.5766 12.9 30.875 12.9H32C32.2984 12.9 32.5845 13.0159 32.7955 13.2222C33.0065 13.4285 33.125 13.7083 33.125 14C33.125 14.2917 33.0065 14.5715 32.7955 14.7778C32.5845 14.9841 32.2984 15.1 32 15.1H30.875C30.5766 15.1 30.2905 14.9841 30.0795 14.7778C29.8685 14.5715 29.75 14.2917 29.75 14Z" fill="#D1D6DB"/>
<path d="M12.6312 39.0586H11.7171V37.4414H12.6312V39.0586ZM16.9319 37.6875H7.43975V36.9375H16.9319V37.6875ZM15.7015 36.0586H8.67022V32.8828H15.7015V36.0586ZM9.58428 35.3203H14.7874V33.6211H9.58428V35.3203ZM15.7132 41.0508H9.52568V42.3398H8.61162V40.3594H14.8108V39.4336H8.58818V38.7188H15.7132V41.0508ZM16.0296 42.832H8.61162V42.1055H16.0296V42.832ZM23.1622 39.8672H22.2599V38.0508H23.1622V39.8672ZM27.463 38.332H17.9708V37.5703H27.463V38.332ZM26.5606 33.6328H18.8614V32.8711H26.5606V33.6328ZM26.5255 36.5859H18.8966V35.8242H26.5255V36.5859ZM21.381 36.3516H20.4669V33.2109H21.381V36.3516ZM24.9552 36.3516H24.0411V33.2109H24.9552V36.3516ZM26.3028 42.8086H19.131V39.5625H26.3028V42.8086ZM20.045 42.0586H25.4005V40.2891H20.045V42.0586ZM33.7401 34.1133H29.0878V33.3398H33.7401V34.1133ZM31.5956 38.2617H30.6815V35.6484H31.5956V38.2617ZM34.2792 33.9609C34.2753 34.4766 34.2577 34.9648 34.2265 35.4258C34.1952 35.8828 34.1229 36.3984 34.0097 36.9727L33.0839 36.9023C33.2011 36.3281 33.2772 35.8262 33.3124 35.3965C33.3476 34.9668 33.369 34.5039 33.3769 34.0078V33.8906V33.3398H34.2792V33.8906V33.9609ZM36.6698 40.3711H35.7323V32.5312H36.6698V40.3711ZM38.1933 36.7148H36.2479V35.9297H38.1933V36.7148ZM37.0097 42.7266H30.0487V41.9531H37.0097V42.7266ZM30.9745 42.1992H30.0487V39.668H30.9745V42.1992ZM28.4433 37.9453C29.6854 37.9414 30.8554 37.918 31.953 37.875C33.0507 37.8281 34.0761 37.7383 35.0292 37.6055L35.0878 38.2852C34.1151 38.4531 33.0878 38.5645 32.0058 38.6191C30.9237 38.6738 29.7675 38.7031 28.537 38.707L28.4433 37.9453ZM47.6345 42.9727H46.7204V32.5312H47.6345V42.9727ZM40.5095 39.668C41.4548 39.6719 42.3337 39.6465 43.1462 39.5918C43.9626 39.5371 44.8181 39.4375 45.7126 39.293L45.8063 40.0664C44.9001 40.207 44.0329 40.3047 43.2048 40.3594C42.3767 40.4141 41.4782 40.4414 40.5095 40.4414H39.6423V39.668H40.5095ZM44.4704 37.207H40.5798V39.9609H39.6423V36.457H43.5446V34.2656H39.6188V33.5039H44.4704V37.207Z" fill="#D1D6DB"/>
</svg>
