<svg width="56" height="48" viewBox="0 0 56 48" fill="none" xmlns="http://www.w3.org/2000/svg">
<path d="M38.0336 3L33.6415 3.87171L36.7037 7.82792L38.9053 7.38089L38.0336 3ZM30.3559 4.5199L28.1542 4.95576L31.2276 8.9008L33.418 8.46494L30.3559 4.5199ZM24.8798 5.59277L22.6781 6.05098L25.7515 9.99602L27.9419 9.56017L24.8798 5.59277ZM19.3925 6.71035L18.2972 6.92269C17.7165 7.03871 17.2056 7.38045 16.8766 7.87286C16.5476 8.36526 16.4275 8.9681 16.5426 9.54899L16.9785 11.7394L22.4546 10.6554L19.3925 6.71035ZM16.9785 11.7394V22.9152C16.9785 23.508 17.214 24.0765 17.6332 24.4957C18.0523 24.9149 18.6208 25.1503 19.2136 25.1503H37.0948C38.3354 25.1503 39.33 24.1557 39.33 22.9152V11.7394H16.9785Z" fill="#D1D6DB"/>
<path d="M12.7366 33.6211C12.7327 34.6914 12.5843 35.6836 12.2913 36.5977C12.0022 37.5117 11.5062 38.3652 10.803 39.1582C10.0999 39.9473 9.1585 40.6367 7.97881 41.2266L7.45147 40.5234C8.51006 39.9922 9.36357 39.3828 10.012 38.6953C10.6644 38.0078 11.1331 37.2539 11.4183 36.4336C11.7073 35.6094 11.8499 34.707 11.846 33.7266V33.6211H12.7366ZM12.3968 34.3828H8.01397V33.6211H12.3968V34.3828ZM7.65068 37.2891L7.48662 36.4922L11.7757 36.2109V36.9023L7.65068 37.2891ZM16.0647 42.9492H15.1507V32.5312H16.0647V42.9492ZM15.596 37.4883H12.7015V36.7266H15.596V37.4883ZM21.3224 43.0312H20.4083V38.8359H21.3224V43.0312ZM25.0606 43.0312H24.1466V38.8359H25.0606V43.0312ZM27.4981 39.3281H17.9591V38.5664H27.4981V39.3281ZM26.256 37.1602H19.1896V33.1055H26.256V37.1602ZM20.0919 36.4219H25.3419V33.8555H20.0919V36.4219ZM37.0917 42.9492H36.1776V32.5312H37.0917V42.9492ZM30.0839 40.0078H29.1815V33.5625H30.0839V40.0078ZM30.0253 39.4688C30.8925 39.4648 31.7382 39.4258 32.5624 39.3516C33.3905 39.2734 34.2245 39.1445 35.0644 38.9648L35.1933 39.75C34.3065 39.9336 33.4433 40.0664 32.6034 40.1484C31.7675 40.2266 30.9081 40.2656 30.0253 40.2656H29.1815V39.4688H30.0253ZM40.5329 39.6797C41.5876 39.6797 42.4841 39.6562 43.2224 39.6094C43.9606 39.5625 44.7165 39.4727 45.4899 39.3398L45.5837 40.1016C44.8063 40.2305 44.0407 40.3184 43.2868 40.3652C42.5329 40.4121 41.6149 40.4375 40.5329 40.4414H39.7009V39.6797H40.5329ZM44.7751 34.2539H40.6149V39.9375H39.7009V33.4805H44.7751V34.2539ZM44.4001 37.1602H40.3923V36.4102H44.4001V37.1602ZM47.6462 42.9492H46.7204V32.5312H47.6462V42.9492Z" fill="#D1D6DB"/>
</svg>
