<svg width="56" height="48" viewBox="0 0 56 48" fill="none" xmlns="http://www.w3.org/2000/svg">
<path d="M17 13.2749C17 12.6881 17.2576 12.131 17.7047 11.751L26.7047 4.101C27.4516 3.46617 28.5484 3.46617 29.2953 4.101L38.2953 11.751C38.7424 12.131 39 12.6881 39 13.2749V23C39 24.1046 38.1046 25 37 25H30.2V19.95C30.2 19.3977 29.7523 18.95 29.2 18.95H26.8C26.2477 18.95 25.8 19.3977 25.8 19.95V25H19C17.8954 25 17 24.1046 17 23V13.2749Z" fill="#0FBC80"/>
<path d="M31.5684 42.8086H24.3965V39.832H31.5684V42.8086ZM25.3105 42.0938H30.666V40.5469H25.3105V42.0938ZM32.1777 34.125H23.7285V33.4102H32.1777V34.125ZM27.9824 34.5469C29.0723 34.5547 29.9062 34.6836 30.4844 34.9336C31.0664 35.1797 31.3574 35.543 31.3574 36.0234C31.3574 36.5078 31.0664 36.875 30.4844 37.125C29.9062 37.375 29.0723 37.5 27.9824 37.5C26.8926 37.5 26.0547 37.375 25.4688 37.125C24.8867 36.875 24.5957 36.5078 24.5957 36.0234C24.5957 35.543 24.8867 35.1797 25.4688 34.9336C26.0547 34.6836 26.8926 34.5547 27.9824 34.5469ZM27.9824 35.1914C27.4707 35.1953 27.0352 35.2305 26.6758 35.2969C26.3203 35.3594 26.0488 35.4512 25.8613 35.5723C25.6738 35.6934 25.5801 35.8438 25.5801 36.0234C25.5801 36.1992 25.6738 36.3496 25.8613 36.4746C26.0488 36.5957 26.3223 36.6895 26.6816 36.7559C27.041 36.8223 27.4746 36.8555 27.9824 36.8555C28.4902 36.8555 28.9238 36.8223 29.2832 36.7559C29.6426 36.6895 29.916 36.5957 30.1035 36.4746C30.291 36.3496 30.3848 36.1992 30.3848 36.0234C30.3848 35.8438 30.291 35.6934 30.1035 35.5723C29.916 35.4512 29.6426 35.3594 29.2832 35.2969C28.9277 35.2305 28.4941 35.1953 27.9824 35.1914ZM28.4395 33.8789H27.5254V32.3789H28.4395V33.8789ZM32.7285 39.0352H23.2363V38.2969H32.7285V39.0352ZM28.4395 38.7188H27.5254V37.2656H28.4395V38.7188Z" fill="#0FBC80"/>
</svg>
