<svg width="56" height="48" viewBox="0 0 56 48" fill="none" xmlns="http://www.w3.org/2000/svg">
<path d="M28 14C31.0387 14 33.5 11.5387 33.5 8.5C33.5 5.46125 31.0387 3 28 3C24.9612 3 22.5 5.46125 22.5 8.5C22.5 11.5387 24.9612 14 28 14ZM28 16.75C24.3287 16.75 17 18.5925 17 22.25V23.625C17 24.3813 17.6187 25 18.375 25H37.625C38.3813 25 39 24.3813 39 23.625V22.25C39 18.5925 31.6713 16.75 28 16.75Z" fill="#0EBC81"/>
<path d="M7.4125 40.3008H2.60781V33.5859H7.4125V40.3008ZM3.49844 39.5508H6.49844V34.3242H3.49844V39.5508ZM10.2367 42.9492H9.32266V32.5312H10.2367V42.9492ZM11.9828 37.4883H10.0258V36.6914H11.9828V37.4883ZM21.2951 42.9727H20.3693V32.5312H21.2951V42.9727ZM15.7521 33.3398C16.2678 33.3398 16.7268 33.4883 17.1291 33.7852C17.5314 34.082 17.8459 34.5059 18.0725 35.0566C18.299 35.6074 18.4123 36.2461 18.4123 36.9727C18.4123 37.6992 18.299 38.3359 18.0725 38.8828C17.8459 39.4297 17.5314 39.8516 17.1291 40.1484C16.7268 40.4453 16.2678 40.5938 15.7521 40.5938C15.2365 40.5938 14.7775 40.4453 14.3752 40.1484C13.9729 39.8516 13.6584 39.4297 13.4318 38.8828C13.2053 38.3359 13.092 37.6992 13.092 36.9727C13.092 36.2461 13.2053 35.6074 13.4318 35.0566C13.6584 34.5059 13.9729 34.082 14.3752 33.7852C14.7775 33.4883 15.2365 33.3398 15.7521 33.3398ZM15.7521 34.1602C15.4084 34.1602 15.1018 34.2773 14.8322 34.5117C14.5627 34.7461 14.3537 35.0762 14.2053 35.502C14.0568 35.9277 13.9826 36.418 13.9826 36.9727C13.9826 37.5312 14.0568 38.0234 14.2053 38.4492C14.3537 38.8711 14.5627 39.1973 14.8322 39.4277C15.1018 39.6582 15.4084 39.7734 15.7521 39.7734C16.0998 39.7734 16.4064 39.6582 16.6721 39.4277C16.9416 39.1973 17.1506 38.8711 17.299 38.4492C17.4475 38.0234 17.5217 37.5312 17.5217 36.9727C17.5217 36.4141 17.4475 35.9238 17.299 35.502C17.1506 35.0762 16.9416 34.7461 16.6721 34.5117C16.4064 34.2773 16.0998 34.1602 15.7521 34.1602ZM32.2012 42.9492H31.3105V32.5312H32.2012V42.9492ZM29.5879 37.3242H27.8301V36.4922H29.5879V37.3242ZM30.1621 42.3984H29.2832V32.7891H30.1621V42.3984ZM28.1348 34.6289H23.3418V33.8672H28.1348V34.6289ZM23.1191 39.5859C24.0488 39.5859 24.9766 39.5703 25.9023 39.5391C26.832 39.5039 27.6543 39.4375 28.3691 39.3398L28.4277 40.0195C27.6895 40.1562 26.8555 40.25 25.9258 40.3008C25 40.3516 24.1035 40.375 23.2363 40.3711L23.1191 39.5859ZM25.0645 39.8203H24.2207V34.3477H25.0645V39.8203ZM27.2559 39.8203H26.4004V34.3477H27.2559V39.8203ZM42.3572 42.9727H41.4314V32.5312H42.3572V42.9727ZM36.8143 33.3398C37.3299 33.3398 37.7889 33.4883 38.1912 33.7852C38.5936 34.082 38.908 34.5059 39.1346 35.0566C39.3611 35.6074 39.4744 36.2461 39.4744 36.9727C39.4744 37.6992 39.3611 38.3359 39.1346 38.8828C38.908 39.4297 38.5936 39.8516 38.1912 40.1484C37.7889 40.4453 37.3299 40.5938 36.8143 40.5938C36.2986 40.5938 35.8396 40.4453 35.4373 40.1484C35.035 39.8516 34.7205 39.4297 34.4939 38.8828C34.2674 38.3359 34.1541 37.6992 34.1541 36.9727C34.1541 36.2461 34.2674 35.6074 34.4939 35.0566C34.7205 34.5059 35.035 34.082 35.4373 33.7852C35.8396 33.4883 36.2986 33.3398 36.8143 33.3398ZM36.8143 34.1602C36.4705 34.1602 36.1639 34.2773 35.8943 34.5117C35.6248 34.7461 35.4158 35.0762 35.2674 35.502C35.1189 35.9277 35.0447 36.418 35.0447 36.9727C35.0447 37.5312 35.1189 38.0234 35.2674 38.4492C35.4158 38.8711 35.6248 39.1973 35.8943 39.4277C36.1639 39.6582 36.4705 39.7734 36.8143 39.7734C37.1619 39.7734 37.4686 39.6582 37.7342 39.4277C38.0037 39.1973 38.2127 38.8711 38.3611 38.4492C38.5096 38.0234 38.5838 37.5312 38.5838 36.9727C38.5838 36.4141 38.5096 35.9238 38.3611 35.502C38.2127 35.0762 38.0037 34.7461 37.7342 34.5117C37.4686 34.2773 37.1619 34.1602 36.8143 34.1602ZM47.8609 35.7305C47.8609 36.4492 47.7242 37.1582 47.4508 37.8574C47.1773 38.5566 46.8102 39.1777 46.3492 39.7207C45.8922 40.2637 45.3922 40.6719 44.8492 40.9453L44.2984 40.2188C44.7945 39.9805 45.2555 39.6211 45.6812 39.1406C46.1109 38.6562 46.4547 38.1133 46.7125 37.5117C46.9703 36.9102 47.0992 36.3164 47.0992 35.7305V34.0078H47.8609V35.7305ZM48.025 35.7305C48.025 36.3047 48.1539 36.877 48.4117 37.4473C48.6695 38.0137 49.0133 38.5195 49.443 38.9648C49.8727 39.4102 50.3414 39.7422 50.8492 39.9609L50.3336 40.6875C49.7672 40.4297 49.2516 40.0469 48.7867 39.5391C48.3258 39.0312 47.9586 38.4473 47.6852 37.7871C47.4156 37.123 47.2828 36.4375 47.2867 35.7305V34.0078H48.025V35.7305ZM50.5094 34.3711H44.6383V33.6094H50.5094V34.3711ZM52.8883 42.9492H51.9625V32.5312H52.8883V42.9492Z" fill="#0EBC81"/>
</svg>
