<svg width="56" height="48" viewBox="0 0 56 48" fill="none" xmlns="http://www.w3.org/2000/svg">
<path fill-rule="evenodd" clip-rule="evenodd" d="M25.9642 6.18203C26.3666 5.79489 26.8795 5.53117 27.438 5.42424C27.9964 5.3173 28.5754 5.37195 29.1015 5.58128C29.6276 5.7906 30.0773 6.14519 30.3937 6.60019C30.7101 7.05519 30.8789 7.59016 30.8789 8.1374V9.18543H25.122V8.1374C25.122 7.40394 25.4247 6.69893 25.9642 6.18203ZM22.6548 9.18543V8.1374C22.6548 6.77488 23.218 5.46816 24.2205 4.50471C25.223 3.54126 26.5827 3 28.0005 3C29.4182 3 30.7779 3.54126 31.7804 4.50471C32.7829 5.46816 33.3461 6.77488 33.3461 8.1374V9.18543H36.2246C36.4268 9.18537 36.6219 9.25691 36.7727 9.38638C36.9235 9.51585 37.0194 9.69417 37.042 9.88728L38.4352 21.8946L38.45 22.0052C38.4829 22.2629 38.5421 22.6865 38.4533 23.0959C38.3585 23.5236 38.144 23.9184 37.833 24.2376C37.522 24.5568 37.1263 24.7884 36.6884 24.9075C36.2854 25.0149 35.8282 25.0023 35.5502 24.996L35.4021 24.9928H20.5988L20.4507 24.996C20.1711 25.0023 19.7139 25.0149 19.3125 24.9075C18.421 24.6703 17.7351 23.959 17.5476 23.0959C17.4588 22.6865 17.5147 22.2629 17.5509 22.0052L17.5657 21.8946L18.9589 9.88728C18.9815 9.69417 19.0774 9.51585 19.2282 9.38638C19.379 9.25691 19.5742 9.18537 19.7764 9.18543H22.6548Z" fill="#D1D6DB"/>
<path d="M26.5958 42.9492H25.6817V32.5312H26.5958V42.9492ZM26.0919 37.4883H23.1974V36.7266H26.0919V37.4883ZM23.2208 33.668C23.2169 34.6953 23.0587 35.6523 22.7462 36.5391C22.4376 37.4219 21.9317 38.2422 21.2286 39C20.5255 39.7539 19.6114 40.4102 18.4864 40.9688L17.9825 40.2305C18.9825 39.7461 19.8028 39.1797 20.4435 38.5312C21.0841 37.8828 21.5548 37.166 21.8556 36.3809C22.1603 35.5918 22.3146 34.7344 22.3185 33.8086V33.668H23.2208ZM22.7989 34.418H18.4396V33.668H22.7989V34.418ZM29.5331 39.6797C30.2636 39.6797 30.9296 39.6602 31.5312 39.6211C32.1366 39.582 32.7675 39.5078 33.4237 39.3984L33.5058 40.1484C32.8183 40.2695 32.1679 40.3516 31.5546 40.3945C30.9452 40.4336 30.2714 40.4531 29.5331 40.4531H28.8534V39.6797H29.5331ZM32.7558 37.3125H29.744V39.9727H28.8534V36.5508H31.8651V34.4414H28.83V33.668H32.7558V37.3125ZM37.4081 42.9492H36.5292V32.5312H37.4081V42.9492ZM36.7636 37.418H34.7245V36.6562H36.7636V37.418ZM34.994 42.4102H34.1503V32.7656H34.994V42.4102Z" fill="#D1D6DB"/>
</svg>
