<svg width="136" height="136" viewBox="0 0 136 136" fill="none" xmlns="http://www.w3.org/2000/svg">
<g filter="url(#filter0_d_951_1353)">
<rect x="20" y="20" width="96" height="96" rx="48" fill="#0EBC81"/>
<path d="M86.8571 71.1429H71.1429V86.8571C71.1429 87.6907 70.8117 88.4901 70.2223 89.0795C69.6329 89.6689 68.8335 90 68 90C67.1665 90 66.3671 89.6689 65.7777 89.0795C65.1883 88.4901 64.8571 87.6907 64.8571 86.8571V71.1429H49.1429C48.3093 71.1429 47.5099 70.8117 46.9205 70.2223C46.3311 69.6329 46 68.8335 46 68C46 67.1665 46.3311 66.3671 46.9205 65.7777C47.5099 65.1883 48.3093 64.8571 49.1429 64.8571H64.8571V49.1429C64.8571 48.3093 65.1883 47.5099 65.7777 46.9205C66.3671 46.3311 67.1665 46 68 46C68.8335 46 69.6329 46.3311 70.2223 46.9205C70.8117 47.5099 71.1429 48.3093 71.1429 49.1429V64.8571H86.8571C87.6907 64.8571 88.4901 65.1883 89.0795 65.7777C89.6689 66.3671 90 67.1665 90 68C90 68.8335 89.6689 69.6329 89.0795 70.2223C88.4901 70.8117 87.6907 71.1429 86.8571 71.1429Z" fill="white"/>
</g>
<defs>
<filter id="filter0_d_951_1353" x="0" y="0" width="136" height="136" filterUnits="userSpaceOnUse" color-interpolation-filters="sRGB">
<feFlood flood-opacity="0" result="BackgroundImageFix"/>
<feColorMatrix in="SourceAlpha" type="matrix" values="0 0 0 0 0 0 0 0 0 0 0 0 0 0 0 0 0 0 127 0" result="hardAlpha"/>
<feOffset/>
<feGaussianBlur stdDeviation="10"/>
<feComposite in2="hardAlpha" operator="out"/>
<feColorMatrix type="matrix" values="0 0 0 0 0.596022 0 0 0 0 0.596022 0 0 0 0 0.596022 0 0 0 0.5 0"/>
<feBlend mode="normal" in2="BackgroundImageFix" result="effect1_dropShadow_951_1353"/>
<feBlend mode="normal" in="SourceGraphic" in2="effect1_dropShadow_951_1353" result="shape"/>
</filter>
</defs>
</svg>
