<svg width="24" height="24" viewBox="0 0 24 24" fill="none" xmlns="http://www.w3.org/2000/svg">
<path d="M9.85242 15.9548C8.14687 15.9548 6.70357 15.364 5.52252 14.1823C4.34147 13.0006 3.75063 11.5573 3.75 9.85242C3.74937 8.1475 4.34021 6.7042 5.52252 5.52252C6.70482 4.34084 8.14812 3.75 9.85242 3.75C11.5567 3.75 13.0003 4.34084 14.1833 5.52252C15.3662 6.7042 15.9567 8.1475 15.9548 9.85242C15.9548 10.5409 15.8453 11.1903 15.6262 11.8005C15.4072 12.4107 15.1099 12.9506 14.7344 13.42L19.9918 18.6775C20.1639 18.8496 20.25 19.0686 20.25 19.3346C20.25 19.6006 20.1639 19.8197 19.9918 19.9918C19.8197 20.1639 19.6006 20.25 19.3346 20.25C19.0686 20.25 18.8496 20.1639 18.6775 19.9918L13.42 14.7344C12.9506 15.1099 12.4107 15.4072 11.8005 15.6262C11.1903 15.8453 10.5409 15.9548 9.85242 15.9548ZM9.85242 14.0772C11.026 14.0772 12.0236 13.6666 12.8454 12.8454C13.6672 12.0243 14.0778 11.0266 14.0772 9.85242C14.0765 8.67825 13.666 7.6809 12.8454 6.86036C12.0249 6.03982 11.0272 5.62892 9.85242 5.62767C8.67762 5.62642 7.68027 6.03731 6.86036 6.86036C6.04044 7.6834 5.62955 8.68075 5.62767 9.85242C5.62579 11.0241 6.03669 12.0217 6.86036 12.8454C7.68403 13.6691 8.68138 14.0797 9.85242 14.0772Z" fill="#D9D9D9"/>
</svg>
